The Specialist (1994) 
  110 min   -  Action | Thriller  -   7 October 1994 (USA) 
 5.2 
Your rating:  
 










-/10
   
 Ratings: 5.2/10 from 32,183 users   
 Reviews: 97 user | 33 critic 


 A woman entices a bomb expert she's involved with into destroying the mafia that killed her family.


==================================================================================





E:THE_SPECIALIST_16X9FFTHE_SPECIALIST.mp4
   General
      Complete name : E:THE_SPECIALIST_16X9FFTHE_SPECIALIST.mp4
      Format : MPEG-4
      Format profile : Base Media
      Codec ID : isom
      File size : 901 MiB
      Duration : 1h 49mn
      Overall bit rate : 1 145 Kbps
      Movie name : THE_SPECIALIST
      Album : THE_SPECIALIST_16X9FF
      Writing application : Lavf52.78.4
   Video #1
      ID : 1
      Format : AVC
      Format/Info : Advanced Video Codec
      Format profile : Main@L3.0
      Format settings, CABAC : Yes
      Format settings, ReFrames : 1 frame
      Codec ID : avc1
      Codec ID/Info : Advanced Video Coding
      Duration : 1h 49mn
      Bit rate mode : Variable
      Bit rate : 823 Kbps
      Width : 720 pixels
      Height : 404 pixels
      Display aspect ratio : 16:9
      Frame rate mode : Constant
      Frame rate : 23.976 fps
      Resolution : 24 bits
      Colorimetry : 4:2:0
      Scan type : Progressive
      Bits/(Pixel*Frame) : 0.118
      Stream size : 647 MiB (72%)
      Writing library : x264 core
      colour_primaries : BT.601-6 525, BT.1358 525, BT.1700 NTSC, SMPTE 170M
      transfer_characteristics : BT.709-5, BT.1361
      matrix_coefficients : BT.601-6 525, BT.1358 525, BT.1700 NTSC, SMPTE 170M
   Audio #2
      ID : 2
      Format : MPEG Audio
      Format version : Version 1
      Format profile : Layer 3
      Codec ID : 6B
      Duration : 1h 49mn
      Bit rate mode : Constant
      Bit rate : 320 Kbps
      Channel(s) : 2 channels
      Sampling rate : 48.0 KHz
      Resolution : 16 bits
      Stream size : 251 MiB (28%)
      Writing library : LAME3.98.4




MOre to COme Soon 

Ty

G